<svg id="visual" viewBox="0 0 900 600" width="900" height="600" xmlns="http://www.w3.org/2000/svg" xmlns:xlink="http://www.w3.org/1999/xlink" version="1.1"><g stroke-width="2" stroke-linejoin="bevel"><path d="M499.9 298L552.7 259L503.9 201Z" fill="#4ea25c" stroke="#6e3e3e"></path><path d="M503.9 201L425.1 194L499.9 298Z" fill="#4ea25c" stroke="#6e3e3e"></path><path d="M657.5 337L611.7 253L552.7 259Z" fill="#2ca396" stroke="#6e3e3e"></path><path d="M552.7 259L611.7 253L503.9 201Z" fill="#f06001" stroke="#6e3e3e"></path><path d="M433.1 400L503.9 371L499.9 298Z" fill="#2ca396" stroke="#6e3e3e"></path><path d="M499.9 298L567.7 397L552.7 259Z" fill="#2ca396" stroke="#6e3e3e"></path><path d="M557.7 112L507.9 115L503.9 201Z" fill="#3aa472" stroke="#6e3e3e"></path><path d="M503.9 201L507.9 115L425.1 194Z" fill="#909600" stroke="#6e3e3e"></path><path d="M425.1 194L385.1 321L499.9 298Z" fill="#799c28" stroke="#6e3e3e"></path><path d="M651.5 177L557.7 112L503.9 201Z" fill="#799c28" stroke="#6e3e3e"></path><path d="M507.9 115L408.1 138L425.1 194Z" fill="#4ea25c" stroke="#6e3e3e"></path><path d="M425.1 194L344.3 212L385.1 321Z" fill="#c08300" stroke="#6e3e3e"></path><path d="M675.5 260L652.5 233L611.7 253Z" fill="#a88e00" stroke="#6e3e3e"></path><path d="M611.7 253L651.5 177L503.9 201Z" fill="#2ca486" stroke="#6e3e3e"></path><path d="M503.9 371L567.7 397L499.9 298Z" fill="#909600" stroke="#6e3e3e"></path><path d="M652.5 233L651.5 177L611.7 253Z" fill="#f06001" stroke="#6e3e3e"></path><path d="M651.5 108L556.7 93L557.7 112Z" fill="#799c28" stroke="#6e3e3e"></path><path d="M557.7 112L556.7 93L507.9 115Z" fill="#2ca486" stroke="#6e3e3e"></path><path d="M507.9 115L458.9 51L408.1 138Z" fill="#799c28" stroke="#6e3e3e"></path><path d="M333.3 190L344.3 212L425.1 194Z" fill="#a88e00" stroke="#6e3e3e"></path><path d="M385.1 321L433.1 400L499.9 298Z" fill="#909600" stroke="#6e3e3e"></path><path d="M503.9 371L565.7 447L567.7 397Z" fill="#f06001" stroke="#6e3e3e"></path><path d="M657.5 337L675.5 260L611.7 253Z" fill="#63a043" stroke="#6e3e3e"></path><path d="M652.5 233L710.4 226L651.5 177Z" fill="#c08300" stroke="#6e3e3e"></path><path d="M567.7 397L657.5 337L552.7 259Z" fill="#63a043" stroke="#6e3e3e"></path><path d="M408.1 138L333.3 190L425.1 194Z" fill="#63a043" stroke="#6e3e3e"></path><path d="M344.3 212L298.3 300L385.1 321Z" fill="#c08300" stroke="#6e3e3e"></path><path d="M433.1 400L462.9 429L503.9 371Z" fill="#3aa472" stroke="#6e3e3e"></path><path d="M761.4 176L651.5 108L651.5 177Z" fill="#c08300" stroke="#6e3e3e"></path><path d="M651.5 177L651.5 108L557.7 112Z" fill="#799c28" stroke="#6e3e3e"></path><path d="M462.9 0L458.9 51L556.7 93Z" fill="#3aa472" stroke="#6e3e3e"></path><path d="M556.7 93L458.9 51L507.9 115Z" fill="#c08300" stroke="#6e3e3e"></path><path d="M408.1 138L325.3 113L333.3 190Z" fill="#799c28" stroke="#6e3e3e"></path><path d="M462.9 429L565.7 447L503.9 371Z" fill="#3aa472" stroke="#6e3e3e"></path><path d="M567.7 397L697.4 395L657.5 337Z" fill="#2ca396" stroke="#6e3e3e"></path><path d="M738.4 295L710.4 226L675.5 260Z" fill="#4ea25c" stroke="#6e3e3e"></path><path d="M675.5 260L710.4 226L652.5 233Z" fill="#d97400" stroke="#6e3e3e"></path><path d="M250.5 202L298.3 300L344.3 212Z" fill="#f06001" stroke="#6e3e3e"></path><path d="M385.1 321L288.3 376L433.1 400Z" fill="#f06001" stroke="#6e3e3e"></path><path d="M433.1 400L368.1 474L462.9 429Z" fill="#4ea25c" stroke="#6e3e3e"></path><path d="M385.1 55L325.3 113L408.1 138Z" fill="#4ea25c" stroke="#6e3e3e"></path><path d="M333.3 190L250.5 202L344.3 212Z" fill="#2ca396" stroke="#6e3e3e"></path><path d="M458.9 51L385.1 55L408.1 138Z" fill="#c08300" stroke="#6e3e3e"></path><path d="M657.5 337L738.4 295L675.5 260Z" fill="#f06001" stroke="#6e3e3e"></path><path d="M697.4 395L738.4 295L657.5 337Z" fill="#3aa472" stroke="#6e3e3e"></path><path d="M174.6 357L284.5 340L298.3 300Z" fill="#63a043" stroke="#6e3e3e"></path><path d="M298.3 300L284.5 340L385.1 321Z" fill="#c08300" stroke="#6e3e3e"></path><path d="M691.5 455L697.4 395L567.7 397Z" fill="#2ca486" stroke="#6e3e3e"></path><path d="M284.5 340L288.3 376L385.1 321Z" fill="#2ca486" stroke="#6e3e3e"></path><path d="M605.7 0L462.9 0L556.7 93Z" fill="#c08300" stroke="#6e3e3e"></path><path d="M458.9 51L391.1 0L385.1 55Z" fill="#d97400" stroke="#6e3e3e"></path><path d="M250.5 190L250.5 202L333.3 190Z" fill="#3aa472" stroke="#6e3e3e"></path><path d="M284.5 340L269.5 404L288.3 376Z" fill="#2ca486" stroke="#6e3e3e"></path><path d="M325.3 113L250.5 190L333.3 190Z" fill="#799c28" stroke="#6e3e3e"></path><path d="M288.3 376L368.1 474L433.1 400Z" fill="#d97400" stroke="#6e3e3e"></path><path d="M462.9 429L511.9 554L565.7 447Z" fill="#909600" stroke="#6e3e3e"></path><path d="M710.4 226L761.4 176L651.5 177Z" fill="#63a043" stroke="#6e3e3e"></path><path d="M805.2 233L761.4 176L710.4 226Z" fill="#799c28" stroke="#6e3e3e"></path><path d="M682.5 0L605.7 0L651.5 108Z" fill="#4ea25c" stroke="#6e3e3e"></path><path d="M651.5 108L605.7 0L556.7 93Z" fill="#3aa472" stroke="#6e3e3e"></path><path d="M288.3 0L260.5 94L325.3 113Z" fill="#3aa472" stroke="#6e3e3e"></path><path d="M325.3 113L260.5 94L250.5 190Z" fill="#d97400" stroke="#6e3e3e"></path><path d="M462.9 0L391.1 0L458.9 51Z" fill="#799c28" stroke="#6e3e3e"></path><path d="M565.7 447L691.5 455L567.7 397Z" fill="#c08300" stroke="#6e3e3e"></path><path d="M697.4 395L843.2 382L738.4 295Z" fill="#c08300" stroke="#6e3e3e"></path><path d="M606.7 542L691.5 455L565.7 447Z" fill="#4ea25c" stroke="#6e3e3e"></path><path d="M288.3 376L328.3 479L368.1 474Z" fill="#799c28" stroke="#6e3e3e"></path><path d="M174.6 357L269.5 404L284.5 340Z" fill="#2ca396" stroke="#6e3e3e"></path><path d="M691.5 455L726.4 434L697.4 395Z" fill="#3aa472" stroke="#6e3e3e"></path><path d="M738.4 295L805.2 233L710.4 226Z" fill="#2ca486" stroke="#6e3e3e"></path><path d="M269.5 404L328.3 479L288.3 376Z" fill="#c08300" stroke="#6e3e3e"></path><path d="M368.1 474L439.1 546L462.9 429Z" fill="#f06001" stroke="#6e3e3e"></path><path d="M288.3 0L325.3 113L385.1 55Z" fill="#d97400" stroke="#6e3e3e"></path><path d="M761.4 176L727.4 52L651.5 108Z" fill="#909600" stroke="#6e3e3e"></path><path d="M819.2 293L805.2 233L738.4 295Z" fill="#63a043" stroke="#6e3e3e"></path><path d="M761.4 176L812.2 115L727.4 52Z" fill="#a88e00" stroke="#6e3e3e"></path><path d="M331.3 519L439.1 546L368.1 474Z" fill="#63a043" stroke="#6e3e3e"></path><path d="M439.1 546L511.9 554L462.9 429Z" fill="#2ca486" stroke="#6e3e3e"></path><path d="M727.4 52L682.5 0L651.5 108Z" fill="#799c28" stroke="#6e3e3e"></path><path d="M511.9 554L606.7 542L565.7 447Z" fill="#d97400" stroke="#6e3e3e"></path><path d="M691.5 455L743.4 491L726.4 434Z" fill="#2ca396" stroke="#6e3e3e"></path><path d="M269.5 404L281.5 472L328.3 479Z" fill="#d97400" stroke="#6e3e3e"></path><path d="M328.3 479L331.3 519L368.1 474Z" fill="#799c28" stroke="#6e3e3e"></path><path d="M843.2 382L819.2 293L738.4 295Z" fill="#3aa472" stroke="#6e3e3e"></path><path d="M281.5 472L331.3 519L328.3 479Z" fill="#909600" stroke="#6e3e3e"></path><path d="M391.1 0L288.3 0L385.1 55Z" fill="#63a043" stroke="#6e3e3e"></path><path d="M805.2 233L812.2 115L761.4 176Z" fill="#f06001" stroke="#6e3e3e"></path><path d="M727.4 52L770.4 0L682.5 0Z" fill="#c08300" stroke="#6e3e3e"></path><path d="M843.2 59L812.2 115L900 58Z" fill="#63a043" stroke="#6e3e3e"></path><path d="M692.5 544L743.4 491L691.5 455Z" fill="#d97400" stroke="#6e3e3e"></path><path d="M726.4 434L843.2 382L697.4 395Z" fill="#63a043" stroke="#6e3e3e"></path><path d="M250.5 190L165.6 232L250.5 202Z" fill="#2ca486" stroke="#6e3e3e"></path><path d="M250.5 202L165.6 232L298.3 300Z" fill="#2ca396" stroke="#6e3e3e"></path><path d="M269.5 404L203.6 424L281.5 472Z" fill="#63a043" stroke="#6e3e3e"></path><path d="M155.6 118L165.6 232L250.5 190Z" fill="#d97400" stroke="#6e3e3e"></path><path d="M155.6 118L250.5 190L260.5 94Z" fill="#f06001" stroke="#6e3e3e"></path><path d="M743.4 491L783.2 457L726.4 434Z" fill="#a88e00" stroke="#6e3e3e"></path><path d="M165.6 232L174.6 357L298.3 300Z" fill="#63a043" stroke="#6e3e3e"></path><path d="M174.6 357L203.6 424L269.5 404Z" fill="#f06001" stroke="#6e3e3e"></path><path d="M273.5 600L293.3 600L331.3 519Z" fill="#a88e00" stroke="#6e3e3e"></path><path d="M639.5 600L692.5 544L606.7 542Z" fill="#3aa472" stroke="#6e3e3e"></path><path d="M606.7 542L692.5 544L691.5 455Z" fill="#799c28" stroke="#6e3e3e"></path><path d="M900 412L843.2 382L783.2 457Z" fill="#4ea25c" stroke="#6e3e3e"></path><path d="M439.1 546L469.9 600L511.9 554Z" fill="#2ca396" stroke="#6e3e3e"></path><path d="M511.9 554L598.7 600L606.7 542Z" fill="#63a043" stroke="#6e3e3e"></path><path d="M434.1 600L469.9 600L439.1 546Z" fill="#d97400" stroke="#6e3e3e"></path><path d="M331.3 519L434.1 600L439.1 546Z" fill="#2ca486" stroke="#6e3e3e"></path><path d="M293.3 600L434.1 600L331.3 519Z" fill="#3aa472" stroke="#6e3e3e"></path><path d="M469.9 600L598.7 600L511.9 554Z" fill="#2ca396" stroke="#6e3e3e"></path><path d="M783.2 457L843.2 382L726.4 434Z" fill="#4ea25c" stroke="#6e3e3e"></path><path d="M900 166L812.2 115L805.2 233Z" fill="#4ea25c" stroke="#6e3e3e"></path><path d="M795.2 0L770.4 0L727.4 52Z" fill="#799c28" stroke="#6e3e3e"></path><path d="M214.5 0L185.6 65L260.5 94Z" fill="#4ea25c" stroke="#6e3e3e"></path><path d="M185.6 65L155.6 118L260.5 94Z" fill="#d97400" stroke="#6e3e3e"></path><path d="M165.6 232L131.6 265L174.6 357Z" fill="#c08300" stroke="#6e3e3e"></path><path d="M121.8 169L131.6 265L165.6 232Z" fill="#d97400" stroke="#6e3e3e"></path><path d="M174.6 357L111.8 415L203.6 424Z" fill="#c08300" stroke="#6e3e3e"></path><path d="M598.7 600L639.5 600L606.7 542Z" fill="#c08300" stroke="#6e3e3e"></path><path d="M900 412L783.2 457L856.2 536Z" fill="#4ea25c" stroke="#6e3e3e"></path><path d="M843.2 59L795.2 0L727.4 52Z" fill="#2ca486" stroke="#6e3e3e"></path><path d="M288.3 0L214.5 0L260.5 94Z" fill="#2ca396" stroke="#6e3e3e"></path><path d="M185.6 65L83.8 54L155.6 118Z" fill="#63a043" stroke="#6e3e3e"></path><path d="M900 257L805.2 233L819.2 293Z" fill="#4ea25c" stroke="#6e3e3e"></path><path d="M812.2 115L843.2 59L727.4 52Z" fill="#a88e00" stroke="#6e3e3e"></path><path d="M83.8 54L121.8 169L155.6 118Z" fill="#2ca486" stroke="#6e3e3e"></path><path d="M155.6 118L121.8 169L165.6 232Z" fill="#a88e00" stroke="#6e3e3e"></path><path d="M900 283L900 257L819.2 293Z" fill="#f06001" stroke="#6e3e3e"></path><path d="M843.2 382L900 283L819.2 293Z" fill="#2ca486" stroke="#6e3e3e"></path><path d="M900 257L900 166L805.2 233Z" fill="#2ca396" stroke="#6e3e3e"></path><path d="M214.5 0L181.6 0L185.6 65Z" fill="#799c28" stroke="#6e3e3e"></path><path d="M77.8 321L104.8 335L131.6 265Z" fill="#d97400" stroke="#6e3e3e"></path><path d="M131.6 265L104.8 335L174.6 357Z" fill="#2ca486" stroke="#6e3e3e"></path><path d="M189.6 519L281.5 472L203.6 424Z" fill="#909600" stroke="#6e3e3e"></path><path d="M273.5 600L331.3 519L207.5 551Z" fill="#799c28" stroke="#6e3e3e"></path><path d="M111.8 415L189.6 519L203.6 424Z" fill="#c08300" stroke="#6e3e3e"></path><path d="M900 412L900 391L843.2 382Z" fill="#d97400" stroke="#6e3e3e"></path><path d="M843.2 382L900 391L900 283Z" fill="#f06001" stroke="#6e3e3e"></path><path d="M783.2 457L743.4 491L856.2 536Z" fill="#d97400" stroke="#6e3e3e"></path><path d="M207.5 551L331.3 519L281.5 472Z" fill="#63a043" stroke="#6e3e3e"></path><path d="M189.6 519L207.5 551L281.5 472Z" fill="#2ca396" stroke="#6e3e3e"></path><path d="M104.8 335L111.8 415L174.6 357Z" fill="#799c28" stroke="#6e3e3e"></path><path d="M189.6 519L128.6 600L207.5 551Z" fill="#c08300" stroke="#6e3e3e"></path><path d="M760.4 600L743.4 491L692.5 544Z" fill="#2ca396" stroke="#6e3e3e"></path><path d="M44.8 244L77.8 321L131.6 265Z" fill="#2ca396" stroke="#6e3e3e"></path><path d="M104.8 335L77.8 321L111.8 415Z" fill="#c08300" stroke="#6e3e3e"></path><path d="M639.5 600L760.4 600L692.5 544Z" fill="#2ca396" stroke="#6e3e3e"></path><path d="M900 166L900 58L812.2 115Z" fill="#63a043" stroke="#6e3e3e"></path><path d="M843.2 59L900 0L795.2 0Z" fill="#63a043" stroke="#6e3e3e"></path><path d="M760.4 600L856.2 536L743.4 491Z" fill="#63a043" stroke="#6e3e3e"></path><path d="M0 157L44.8 244L121.8 169Z" fill="#f06001" stroke="#6e3e3e"></path><path d="M121.8 169L44.8 244L131.6 265Z" fill="#c08300" stroke="#6e3e3e"></path><path d="M0 518L96.8 545L111.8 415Z" fill="#2ca486" stroke="#6e3e3e"></path><path d="M99.8 0L83.8 54L185.6 65Z" fill="#909600" stroke="#6e3e3e"></path><path d="M900 58L900 0L843.2 59Z" fill="#d97400" stroke="#6e3e3e"></path><path d="M181.6 0L99.8 0L185.6 65Z" fill="#4ea25c" stroke="#6e3e3e"></path><path d="M900 600L900 533L856.2 536Z" fill="#a88e00" stroke="#6e3e3e"></path><path d="M856.2 536L900 533L900 412Z" fill="#f06001" stroke="#6e3e3e"></path><path d="M760.4 600L855.2 600L856.2 536Z" fill="#c08300" stroke="#6e3e3e"></path><path d="M0 401L111.8 415L77.8 321Z" fill="#a88e00" stroke="#6e3e3e"></path><path d="M111.8 415L96.8 545L189.6 519Z" fill="#d97400" stroke="#6e3e3e"></path><path d="M207.5 551L128.6 600L273.5 600Z" fill="#909600" stroke="#6e3e3e"></path><path d="M0 157L0 248L44.8 244Z" fill="#909600" stroke="#6e3e3e"></path><path d="M44.8 244L0 290L77.8 321Z" fill="#c08300" stroke="#6e3e3e"></path><path d="M0 157L121.8 169L83.8 54Z" fill="#4ea25c" stroke="#6e3e3e"></path><path d="M0 248L0 290L44.8 244Z" fill="#2ca396" stroke="#6e3e3e"></path><path d="M0 46L0 157L83.8 54Z" fill="#2ca486" stroke="#6e3e3e"></path><path d="M96.8 545L128.6 600L189.6 519Z" fill="#d97400" stroke="#6e3e3e"></path><path d="M0 290L0 401L77.8 321Z" fill="#2ca486" stroke="#6e3e3e"></path><path d="M96.8 545L51.8 600L128.6 600Z" fill="#f06001" stroke="#6e3e3e"></path><path d="M855.2 600L900 600L856.2 536Z" fill="#a88e00" stroke="#6e3e3e"></path><path d="M0 401L0 419L111.8 415Z" fill="#2ca396" stroke="#6e3e3e"></path><path d="M0 0L0 46L83.8 54Z" fill="#2ca396" stroke="#6e3e3e"></path><path d="M99.8 0L0 0L83.8 54Z" fill="#909600" stroke="#6e3e3e"></path><path d="M0 419L0 518L111.8 415Z" fill="#799c28" stroke="#6e3e3e"></path><path d="M0 518L51.8 600L96.8 545Z" fill="#c08300" stroke="#6e3e3e"></path><path d="M0 518L0 600L51.8 600Z" fill="#2ca486" stroke="#6e3e3e"></path></g></svg>