<svg id="visual" viewBox="0 0 900 600" width="900" height="600" xmlns="http://www.w3.org/2000/svg" xmlns:xlink="http://www.w3.org/1999/xlink" version="1.1"><g stroke-width="4" stroke-linejoin="bevel"><path d="M496 319L531 396L562 309Z" fill="#f06001" stroke="#FFFFFF"></path><path d="M531 396L605 404L562 309Z" fill="#799c28" stroke="#FFFFFF"></path><path d="M562 309L465 237L496 319Z" fill="#f06001" stroke="#FFFFFF"></path><path d="M605 404L660 386L562 309Z" fill="#63a043" stroke="#FFFFFF"></path><path d="M383 332L411 421L496 319Z" fill="#f06001" stroke="#FFFFFF"></path><path d="M496 319L411 421L531 396Z" fill="#f06001" stroke="#FFFFFF"></path><path d="M531 396L600 508L605 404Z" fill="#d97400" stroke="#FFFFFF"></path><path d="M465 237L383 332L496 319Z" fill="#4ea25c" stroke="#FFFFFF"></path><path d="M660 386L690 290L562 309Z" fill="#63a043" stroke="#FFFFFF"></path><path d="M562 309L636 165L465 237Z" fill="#2ca486" stroke="#FFFFFF"></path><path d="M508 538L600 508L531 396Z" fill="#4ea25c" stroke="#FFFFFF"></path><path d="M605 404L600 508L660 386Z" fill="#d97400" stroke="#FFFFFF"></path><path d="M411 421L508 538L531 396Z" fill="#c08300" stroke="#FFFFFF"></path><path d="M383 332L338 416L411 421Z" fill="#63a043" stroke="#FFFFFF"></path><path d="M411 421L375 527L508 538Z" fill="#c08300" stroke="#FFFFFF"></path><path d="M690 290L669 189L562 309Z" fill="#2ca486" stroke="#FFFFFF"></path><path d="M669 189L636 165L562 309Z" fill="#2ca396" stroke="#FFFFFF"></path><path d="M465 237L334 269L383 332Z" fill="#2ca486" stroke="#FFFFFF"></path><path d="M383 332L334 269L338 416Z" fill="#63a043" stroke="#FFFFFF"></path><path d="M379 160L334 269L465 237Z" fill="#f06001" stroke="#FFFFFF"></path><path d="M338 416L375 527L411 421Z" fill="#c08300" stroke="#FFFFFF"></path><path d="M780 423L775 332L660 386Z" fill="#2ca396" stroke="#FFFFFF"></path><path d="M660 386L775 332L690 290Z" fill="#799c28" stroke="#FFFFFF"></path><path d="M690 290L776 191L669 189Z" fill="#799c28" stroke="#FFFFFF"></path><path d="M680 600L711 515L600 508Z" fill="#909600" stroke="#FFFFFF"></path><path d="M600 508L711 515L660 386Z" fill="#2ca486" stroke="#FFFFFF"></path><path d="M440 79L379 160L465 237Z" fill="#909600" stroke="#FFFFFF"></path><path d="M381 600L520 600L508 538Z" fill="#3aa472" stroke="#FFFFFF"></path><path d="M508 538L605 600L600 508Z" fill="#4ea25c" stroke="#FFFFFF"></path><path d="M711 515L780 423L660 386Z" fill="#f06001" stroke="#FFFFFF"></path><path d="M520 600L605 600L508 538Z" fill="#63a043" stroke="#FFFFFF"></path><path d="M669 189L672 121L636 165Z" fill="#2ca486" stroke="#FFFFFF"></path><path d="M636 165L572 75L465 237Z" fill="#909600" stroke="#FFFFFF"></path><path d="M776 191L672 121L669 189Z" fill="#4ea25c" stroke="#FFFFFF"></path><path d="M672 121L572 75L636 165Z" fill="#63a043" stroke="#FFFFFF"></path><path d="M572 75L537 65L465 237Z" fill="#2ca396" stroke="#FFFFFF"></path><path d="M537 65L440 79L465 237Z" fill="#2ca396" stroke="#FFFFFF"></path><path d="M775 332L776 191L690 290Z" fill="#4ea25c" stroke="#FFFFFF"></path><path d="M900 328L776 191L775 332Z" fill="#63a043" stroke="#FFFFFF"></path><path d="M711 515L777 533L780 423Z" fill="#799c28" stroke="#FFFFFF"></path><path d="M605 600L680 600L600 508Z" fill="#4ea25c" stroke="#FFFFFF"></path><path d="M262 600L381 600L375 527Z" fill="#4ea25c" stroke="#FFFFFF"></path><path d="M375 527L381 600L508 538Z" fill="#4ea25c" stroke="#FFFFFF"></path><path d="M680 600L777 533L711 515Z" fill="#2ca396" stroke="#FFFFFF"></path><path d="M233 412L272 507L338 416Z" fill="#a88e00" stroke="#FFFFFF"></path><path d="M338 416L272 507L375 527Z" fill="#799c28" stroke="#FFFFFF"></path><path d="M230 289L233 412L338 416Z" fill="#a88e00" stroke="#FFFFFF"></path><path d="M230 289L338 416L334 269Z" fill="#3aa472" stroke="#FFFFFF"></path><path d="M264 176L334 269L379 160Z" fill="#799c28" stroke="#FFFFFF"></path><path d="M264 176L230 289L334 269Z" fill="#63a043" stroke="#FFFFFF"></path><path d="M271 114L264 176L379 160Z" fill="#63a043" stroke="#FFFFFF"></path><path d="M776 191L768 112L672 121Z" fill="#f06001" stroke="#FFFFFF"></path><path d="M672 121L594 0L572 75Z" fill="#f06001" stroke="#FFFFFF"></path><path d="M594 0L511 0L537 65Z" fill="#3aa472" stroke="#FFFFFF"></path><path d="M594 0L537 65L572 75Z" fill="#a88e00" stroke="#FFFFFF"></path><path d="M537 65L511 0L440 79Z" fill="#3aa472" stroke="#FFFFFF"></path><path d="M392 0L271 114L379 160Z" fill="#d97400" stroke="#FFFFFF"></path><path d="M392 0L379 160L440 79Z" fill="#3aa472" stroke="#FFFFFF"></path><path d="M264 176L204 190L230 289Z" fill="#2ca396" stroke="#FFFFFF"></path><path d="M692 0L594 0L672 121Z" fill="#4ea25c" stroke="#FFFFFF"></path><path d="M106 467L199 484L233 412Z" fill="#d97400" stroke="#FFFFFF"></path><path d="M233 412L199 484L272 507Z" fill="#909600" stroke="#FFFFFF"></path><path d="M272 507L262 600L375 527Z" fill="#3aa472" stroke="#FFFFFF"></path><path d="M187 115L204 190L264 176Z" fill="#4ea25c" stroke="#FFFFFF"></path><path d="M230 289L114 287L233 412Z" fill="#909600" stroke="#FFFFFF"></path><path d="M900 389L775 332L780 423Z" fill="#909600" stroke="#FFFFFF"></path><path d="M900 389L900 328L775 332Z" fill="#2ca396" stroke="#FFFFFF"></path><path d="M776 191L900 194L768 112Z" fill="#63a043" stroke="#FFFFFF"></path><path d="M900 531L900 389L780 423Z" fill="#63a043" stroke="#FFFFFF"></path><path d="M213 600L262 600L272 507Z" fill="#63a043" stroke="#FFFFFF"></path><path d="M680 600L808 600L777 533Z" fill="#a88e00" stroke="#FFFFFF"></path><path d="M777 533L900 531L780 423Z" fill="#c08300" stroke="#FFFFFF"></path><path d="M511 0L392 0L440 79Z" fill="#909600" stroke="#FFFFFF"></path><path d="M768 112L692 0L672 121Z" fill="#799c28" stroke="#FFFFFF"></path><path d="M900 328L900 194L776 191Z" fill="#a88e00" stroke="#FFFFFF"></path><path d="M768 112L809 0L692 0Z" fill="#63a043" stroke="#FFFFFF"></path><path d="M199 484L213 600L272 507Z" fill="#4ea25c" stroke="#FFFFFF"></path><path d="M808 600L900 531L777 533Z" fill="#a88e00" stroke="#FFFFFF"></path><path d="M271 114L187 115L264 176Z" fill="#d97400" stroke="#FFFFFF"></path><path d="M204 190L114 287L230 289Z" fill="#909600" stroke="#FFFFFF"></path><path d="M207 0L187 115L271 114Z" fill="#f06001" stroke="#FFFFFF"></path><path d="M81 160L114 287L204 190Z" fill="#c08300" stroke="#FFFFFF"></path><path d="M199 484L106 600L213 600Z" fill="#c08300" stroke="#FFFFFF"></path><path d="M392 0L264 0L271 114Z" fill="#d97400" stroke="#FFFFFF"></path><path d="M900 69L809 0L768 112Z" fill="#f06001" stroke="#FFFFFF"></path><path d="M808 600L900 600L900 531Z" fill="#f06001" stroke="#FFFFFF"></path><path d="M81 359L106 467L233 412Z" fill="#a88e00" stroke="#FFFFFF"></path><path d="M114 287L81 359L233 412Z" fill="#3aa472" stroke="#FFFFFF"></path><path d="M0 260L81 359L114 287Z" fill="#d97400" stroke="#FFFFFF"></path><path d="M900 194L900 69L768 112Z" fill="#d97400" stroke="#FFFFFF"></path><path d="M264 0L207 0L271 114Z" fill="#2ca396" stroke="#FFFFFF"></path><path d="M187 115L81 160L204 190Z" fill="#4ea25c" stroke="#FFFFFF"></path><path d="M92 110L81 160L187 115Z" fill="#909600" stroke="#FFFFFF"></path><path d="M0 492L106 600L106 467Z" fill="#4ea25c" stroke="#FFFFFF"></path><path d="M106 467L106 600L199 484Z" fill="#2ca396" stroke="#FFFFFF"></path><path d="M110 0L92 110L187 115Z" fill="#a88e00" stroke="#FFFFFF"></path><path d="M900 69L900 0L809 0Z" fill="#2ca486" stroke="#FFFFFF"></path><path d="M0 260L0 427L81 359Z" fill="#4ea25c" stroke="#FFFFFF"></path><path d="M81 359L0 427L106 467Z" fill="#a88e00" stroke="#FFFFFF"></path><path d="M0 260L114 287L0 235Z" fill="#4ea25c" stroke="#FFFFFF"></path><path d="M0 235L114 287L81 160Z" fill="#2ca486" stroke="#FFFFFF"></path><path d="M0 129L0 235L81 160Z" fill="#909600" stroke="#FFFFFF"></path><path d="M207 0L110 0L187 115Z" fill="#d97400" stroke="#FFFFFF"></path><path d="M92 110L0 129L81 160Z" fill="#799c28" stroke="#FFFFFF"></path><path d="M0 427L0 492L106 467Z" fill="#f06001" stroke="#FFFFFF"></path><path d="M0 0L0 129L92 110Z" fill="#4ea25c" stroke="#FFFFFF"></path><path d="M0 492L0 600L106 600Z" fill="#2ca396" stroke="#FFFFFF"></path><path d="M110 0L0 0L92 110Z" fill="#2ca396" stroke="#FFFFFF"></path></g></svg>